Coordinates
version=1
nRows=16
nColumns=36
inDegrees=yes

Units are S.I. units (second, meters, Newtons, ...)
If the header above contains a line with 'inDegrees', this indicates whether rotational values are in degrees (yes) or radians (no).

endheader
time	pelvis_tilt	pelvis_list	pelvis_rotation	pelvis_tx	pelvis_ty	pelvis_tz	hip_flexion_r	hip_adduction_r	hip_rotation_r	knee_angle_r	knee_angle_r_beta	ankle_angle_r	subtalar_angle_r	mtp_angle_r	hip_flexion_l	hip_adduction_l	hip_rotation_l	knee_angle_l	knee_angle_l_beta	ankle_angle_l	subtalar_angle_l	mtp_angle_l	lumbar_extension	lumbar_bending	lumbar_rotation	arm_flex_r	arm_add_r	arm_rot_r	elbow_flex_r	pro_sup_r	arm_flex_l	arm_add_l	arm_rot_l	elbow_flex_l	pro_sup_l
      0.00000000	     -2.70173492	     -2.49380218	      6.64156769	     -0.05207338	      1.34430861	     -0.09339051	     -2.09414073	      2.76811707	     -8.25827954	      1.02883873	      0.01795662	     -9.40413947	    -26.27045402	     -7.62752964	     -0.66092696	     -0.85538149	      6.91496556	      2.31041740	      0.04032439	      2.74865900	    -13.00187606	     -7.62752964	     -9.03337017	      1.92327135	     -2.93063066	    -24.74831356	    -28.07415875	     13.93724196	    106.13922301	     94.35792470	    -23.78215921	    -20.84244974	     12.09098621	    104.61789595	     97.30517102
      0.01666670	     -5.44068159	     -3.40527265	      6.88373256	     -0.05113381	      1.33380060	     -0.09435955	      0.81260703	      3.39935585	     -9.95104881	      1.44435269	      0.02520871	     -6.02414473	    -20.91766891	     -7.58530344	      2.08041221	     -0.98513536	      7.57569837	      1.90354859	      0.03322319	      3.63407841	    -10.53294517	     -7.58530344	     -5.35768312	      2.16914206	     -2.51398745	    -26.96293719	    -30.23064728	     14.02315769	    106.73379402	     96.90745010	    -25.39285983	    -20.81712547	     12.90094202	    106.17357006	     99.75049560
      0.03333330	     -6.38150192	     -3.27582154	      6.86049000	     -0.05100529	      1.33324260	     -0.09406696	      1.63313163	      3.21327971	    -11.33454149	      1.24524233	      0.02173358	     -4.31708733	    -19.78440037	     -7.56654977	      2.96676171	     -0.45029153	      7.53634120	      1.92734731	      0.03363856	      4.33438269	    -10.10191791	     -7.56654977	     -4.39196136	      1.57300678	     -2.45096159	    -27.57488332	    -30.20145925	     13.28826381	    106.85209434	     96.16681444	    -26.21580894	    -21.12241469	     12.76238972	    106.99885433	     98.10670734
      0.05000000	     -6.88889204	     -3.20150732	      7.00984970	     -0.04998352	      1.33431451	     -0.09382994	      2.07972005	      3.17373525	    -12.37217394	      0.99169276	      0.01730830	     -3.02637249	    -18.21771487	     -7.53921602	      3.16183985	     -0.22774288	      7.66813016	      1.39355728	      0.02432216	      4.27533814	     -9.85669778	     -7.53921602	     -3.83544901	      1.15557556	     -2.79586501	    -27.26617682	    -29.89691997	     12.61072563	    106.31838542	    101.41663260	    -26.82477141	    -20.67474080	     11.73065766	    107.33768659	    102.11752021
      0.06666670	     -7.08429046	     -3.25001114	      6.96294845	     -0.04466898	      1.33497116	     -0.09116068	      2.01111684	      3.42532028	    -12.79911258	      0.76488176	      0.01334971	     -2.43562100	    -17.71185007	     -7.53863421	      3.05131369	     -0.27548570	      7.66046383	      1.14779063	      0.02003273	      4.57427567	     -9.57401516	     -7.53863421	     -3.46634567	      0.97401530	     -2.38152688	    -26.98676267	    -29.39702933	     12.54390395	    105.38405499	    101.54765665	    -26.85829669	    -20.39208906	     11.47395430	    106.86815554	    102.13295806
      0.08333330	     -7.26102754	     -3.36882856	      7.10565759	     -0.04494160	      1.32772436	     -0.09132377	      2.07232315	      3.66174065	    -13.43276954	      0.67437056	      0.01176999	     -1.43534130	    -16.84866399	     -7.53483594	      3.00013944	     -0.40279749	      7.88334777	      1.00491657	      0.01753910	      4.92520267	     -9.59326974	     -7.53483594	     -3.06104151	      0.94993185	     -2.34374392	    -26.55335098	    -29.91715180	     13.77426708	    105.34565088	    103.19014567	    -27.21346864	    -20.44033975	     11.19367464	    107.51831212	    102.99310891
      0.10000000	     -7.43632827	     -3.39250043	      7.21944439	     -0.04526758	      1.32785265	     -0.09149154	      2.16928074	      3.74620200	    -13.78808298	      0.59196426	      0.01033173	     -1.05214005	    -16.65464988	     -7.51196954	      3.01733472	     -0.44191762	      8.21132982	      0.91260010	      0.01592788	      5.09692079	     -9.82796973	     -7.51196954	     -2.66760102	      0.86621671	     -2.58089651	    -26.19203679	    -30.48915622	     14.98812289	    105.28188655	    103.72318880	    -27.29706736	    -20.39777617	     11.00536473	    107.76717251	    102.88270274
      0.11666670	     -7.45528640	     -3.34642764	      7.40649419	     -0.03951433	      1.32943810	     -0.08875933	      1.92780912	      3.83296776	    -13.88759256	      0.51318410	      0.00895675	     -0.82662823	    -16.57345356	     -7.51186903	      2.87205859	     -0.48358150	      8.31395148	      0.89655367	      0.01564781	      5.12121571	     -9.92945344	     -7.51186903	     -2.37696885	      0.67738220	     -2.51535494	    -26.61562996	    -30.34062065	     15.44513701	    105.10807532	    103.73013804	    -27.37009981	    -20.69273093	     11.02699730	    107.70114410	    102.91763177
      0.13333330	     -7.55908266	     -3.30869555	      7.58355972	     -0.03997327	      1.32920598	     -0.08904685	      1.83704708	      3.87361624	    -14.13669940	      0.48778982	      0.00851354	     -0.23528743	    -15.87740634	     -7.51158291	      2.85332123	     -0.52549890	      8.51681686	      0.92226253	      0.01609652	      5.05631066	    -10.08882669	     -7.51158291	     -1.97663568	      0.52846090	     -2.52318706	    -26.54458188	    -30.22785360	     15.86572695	    104.62005317	    103.65641042	    -27.31767339	    -21.11686837	     11.42079353	    107.62840969	    103.03513297
      0.15000000	     -7.56554557	     -3.27755138	      7.77583099	     -0.04036991	      1.32645638	     -0.08920762	      1.63680378	      3.93392184	    -14.26232232	      0.46060729	      0.00803911	      0.08980795	    -15.43871532	     -7.51042654	      2.81538818	     -0.53509988	      8.75039685	      0.94553577	      0.01650271	      5.02684938	    -10.31323797	     -7.51042654	     -1.78308455	      0.42423804	     -2.66774261	    -26.54134566	    -30.29394003	     16.23641263	    104.65632723	    103.20819216	    -27.44662227	    -21.38856993	     11.43264612	    107.97687621	    103.23425575
      0.16666670	     -7.56779286	     -3.25887761	      7.92406836	     -0.04025060	      1.32753149	     -0.08933435	      1.50734017	      3.97364744	    -14.25253902	      0.45525189	      0.00794564	      0.08196835	    -15.42343922	     -7.51041284	      2.77320081	     -0.56716217	      8.64487774	      0.96490178	      0.01684071	      4.98393105	    -10.34883736	     -7.51041284	     -1.67141842	      0.33761927	     -2.70879408	    -26.59660543	    -30.25986858	     16.26219683	    104.64923010	    103.20351738	    -27.59917136	    -21.42734556	     11.52516902	    107.93027732	    103.24769119
      0.18333330	     -7.67144239	     -3.21235066	      8.10196670	     -0.03999314	      1.32936388	     -0.08932599	      1.50519726	      3.93324345	    -14.36487629	      0.43093174	      0.00752118	      0.06747884	    -15.17863294	     -7.51023371	      2.86185350	     -0.53033834	      8.71409633	      0.92889050	      0.01621220	      4.76582779	    -10.40914643	     -7.51023371	     -1.40667951	      0.25012018	     -2.96028473	    -26.40689813	    -30.07877997	     16.44296263	    104.21523161	    103.09871131	    -27.58742315	    -21.78479990	     11.96036990	    107.73421316	    103.39510742
      0.20000000	     -7.65855848	     -3.21613991	      8.10037281	     -0.04052140	      1.32986624	     -0.08942833	      1.53980556	      3.93693797	    -14.36239080	      0.40027470	      0.00698611	      0.01782469	    -14.95372108	     -7.50916946	      2.85332797	     -0.56635897	      8.70889473	      0.86801125	      0.01514965	      4.69311183	    -10.29013445	     -7.50916946	     -1.31735279	      0.26286595	     -2.82875774	    -26.20516403	    -30.36553390	     16.98493100	    103.85322112	    101.05727991	    -27.26800388	    -21.95109366	     12.36065010	    107.58820162	    101.72308031
      0.21666670	     -7.67218121	     -3.22071396	      8.05947646	     -0.04046492	      1.32993343	     -0.08920162	      1.65169148	      3.89890160	    -14.54754953	      0.38324092	      0.00668882	     -0.30421326	    -14.87739322	     -7.50914216	      2.90318843	     -0.56948464	      8.70152286	      0.77341427	      0.01349863	      4.59203766	    -10.25983265	     -7.50914216	     -1.26594256	      0.28946902	     -2.76883611	    -26.04640668	    -30.44822200	     16.96807872	    103.83541972	    101.07187102	    -27.12407324	    -21.96518002	     12.33934022	    107.61124142	    101.78289232
      0.23333330	     -7.78516232	     -3.23617952	      8.01593326	     -0.04076191	      1.32828543	     -0.08935429	      1.82915512	      3.86552076	    -14.71738349	      0.36788193	      0.00642075	     -0.62102337	    -14.79737811	     -7.50652005	      3.00297356	     -0.57761942	      8.84035708	      0.73994102	      0.01291441	      4.40612390	    -10.33059710	     -7.50652005	     -1.08286996	      0.31116004	     -2.94563799	    -25.94395126	    -30.55203581	     17.11493631	    103.85632378	    101.61547125	    -27.01171962	    -21.87180004	     12.29104531	    107.67112917	    104.49569111
      0.25000000	     -7.80205670	     -3.26936458	      7.85945801	     -0.04039559	      1.33040962	     -0.08908853	      1.91693451	      3.87019096	    -14.73305099	      0.36480471	      0.00636704	     -1.05971022	    -14.96171961	     -7.50500338	      3.03792083	     -0.60941667	      8.87418523	      0.66627683	      0.01162872	      4.16831022	    -10.60136773	     -7.50500338	     -1.03760856	      0.39612260	     -2.79856848	    -26.11386910	    -30.44399225	     16.85892918	    103.86179642	    100.40257897	    -26.68444639	    -21.81119794	     12.58520148	    107.40921306	    103.39603631
